<?xml version="1.0" encoding="UTF-8" standalone="no"?>
<svg
   width="50"
   height="55"
   viewBox="0 0 50 55"
   fill="none"
   version="1.1"
   id="svg1016"
   sodipodi:docname="main.svg"
   inkscape:version="1.1.2 (b8e25be833, 2022-02-05)"
   xmlns:inkscape="http://www.inkscape.org/namespaces/inkscape"
   xmlns:sodipodi="http://sodipodi.sourceforge.net/DTD/sodipodi-0.dtd"
   xmlns="http://www.w3.org/2000/svg"
   xmlns:svg="http://www.w3.org/2000/svg">
  <sodipodi:namedview
     id="namedview1018"
     pagecolor="#ffffff"
     bordercolor="#666666"
     borderopacity="1.0"
     inkscape:pageshadow="2"
     inkscape:pageopacity="0.0"
     inkscape:pagecheckerboard="0"
     showgrid="false"
     inkscape:zoom="10.901961"
     inkscape:cx="6.5125899"
     inkscape:cy="46.964029"
     inkscape:window-width="1920"
     inkscape:window-height="1017"
     inkscape:window-x="-8"
     inkscape:window-y="-8"
     inkscape:window-maximized="1"
     inkscape:current-layer="svg1016" />
  <path
     d="m 25.0006,0.61755 -23.2771,13.4399 -8e-4,26.8825 23.2765,13.4425 23.2775,-13.4407 6e-4,-26.8825 -23.2768,-13.4417"
     fill="#ffffff"
     id="path922" />
  <path
     d="m 24.6019,15.50875 -10.1819,17.6358 0.3979,0.691 20.365,7e-4 0.398,-0.6911 -10.1819,-17.6364 z"
     fill="#ffffff"
     id="path924" />
  <path
     d="m 24.6323,2.01275 -0.735,-0.1146 -20.2007,11.6597 20.9079,-0.0543 z"
     fill="#ffffff"
     id="path926" />
  <path
     d="m 25.3692,2.01275 0.735,-0.1146 20.2007,11.6597 -20.8555,-0.1637 z"
     fill="#ffffff"
     id="path928" />
  <path
     d="m 3.1823,14.44755 -0.3915,0.6788 10.5649,18.2996 10.9584,-18.9797 -21.1318,0.0014"
     fill="#ffffff"
     id="path930" />
  <path
     d="m 25.6871,14.44635 10.9583,18.9809 10.5649,-18.3003 -0.3915,-0.6794 z"
     fill="#ffffff"
     id="path932" />
  <path
     d="m 14.0428,34.61655 10.5656,18.2996 0.7835,7e-4 10.5662,-18.2997 z"
     fill="#ffffff"
     id="path934" />
  <path
     d="m 2.2777,16.01605 0.0025,23.3245 0.4666,0.5785 9.9379,-5.7684 -10.407,-18.1346"
     fill="#ffffff"
     id="path936" />
  <path
     d="m 3.1148,40.55765 0.2685,0.6929 20.1988,11.665 -10.5022,-18.0797 z"
     fill="#ffffff"
     id="path938" />
  <path
     d="m 47.7232,16.01665 -10.407,18.1347 9.938,5.7683 0.4665,-0.5784 0.0026,-23.3246"
     fill="#ffffff"
     id="path940" />
  <path
     d="m 36.9203,34.83655 -10.5015,18.0796 20.1987,-11.6648 0.2685,-0.693 z"
     fill="#ffffff"
     id="path942" />
  <path
     d="m 24.6021,15.60045 -10.1819,17.6358 0.398,0.691 20.365,7e-4 0.3979,-0.6911 -10.1819,-17.6364 z"
     fill="url(#paint0_radial_126_828)"
     id="path944"
     style="fill:url(#paint0_radial_126_828)" />
  <path
     d="m 24.6323,2.10445 -0.735,-0.1145 -20.2007,11.6597 20.9079,-0.0544 z"
     fill="url(#paint1_radial_126_828)"
     id="path946"
     style="fill:url(#paint1_radial_126_828)" />
  <path
     d="m 3.1823,14.53925 -0.3915,0.6788 10.5649,18.2996 10.9584,-18.9797 -21.1318,0.0014"
     fill="url(#paint2_radial_126_828)"
     id="path948"
     style="fill:url(#paint2_radial_126_828)" />
  <path
     d="m 25.3687,2.10445 0.7351,-0.1145 20.2006,11.6597 -20.9079,-0.0544 z"
     fill="url(#paint3_radial_126_828)"
     id="path950"
     style="fill:url(#paint3_radial_126_828)" />
  <path
     d="M 2.7473,40.01185 2.2806,39.43255 2.2779,16.10845 12.6848,34.24235 Z"
     fill="url(#paint4_radial_126_828)"
     id="path952"
     style="fill:url(#paint4_radial_126_828)" />
  <path
     d="m 46.8855,40.64955 -0.2683,0.6938 -20.1979,11.6645 10.501,-18.0796 z"
     fill="url(#paint5_radial_126_828)"
     id="path954"
     style="fill:url(#paint5_radial_126_828)" />
  <path
     d="m 47.254,40.01255 0.4667,-0.5793 0.0026,-23.3242 -10.4068,18.134 z"
     fill="url(#paint6_radial_126_828)"
     id="path956"
     style="fill:url(#paint6_radial_126_828)" />
  <path
     d="m 46.8188,14.53935 0.3915,0.6787 -10.5649,18.2997 -10.9583,-18.9797 21.1317,0.0013"
     fill="url(#paint7_radial_126_828)"
     id="path958"
     style="fill:url(#paint7_radial_126_828)" />
  <path
     d="m 3.116,40.64935 0.2684,0.6938 20.1979,11.6644 -10.501,-18.0795 z"
     fill="url(#paint8_radial_126_828)"
     id="path960"
     style="fill:url(#paint8_radial_126_828)" />
  <path
     d="m 24.6098,53.00825 0.7835,-3e-4 10.5655,-18.2994 -21.916,-3e-4 10.567,18.3"
     fill="url(#paint9_radial_126_828)"
     id="path962"
     style="fill:url(#paint9_radial_126_828)" />
  <defs
     id="defs1014">
    <radialGradient
       id="paint0_radial_126_828"
       cx="0"
       cy="0"
       r="1"
       gradientUnits="userSpaceOnUse"
       gradientTransform="matrix(-31.0355,-5.4167166e-4,5.8647426e-4,-33.6025,25,27.59175)">
      <stop
         stop-color="white"
         id="stop964" />
      <stop
         offset="1"
         id="stop966" />
    </radialGradient>
    <radialGradient
       id="paint1_radial_126_828"
       cx="0"
       cy="0"
       r="1"
       gradientUnits="userSpaceOnUse"
       gradientTransform="matrix(-31.0355,5.4167166e-4,-5.8647426e-4,-33.6025,24.9998,27.59175)">
      <stop
         stop-color="white"
         id="stop969" />
      <stop
         offset="1"
         id="stop971" />
    </radialGradient>
    <radialGradient
       id="paint2_radial_126_828"
       cx="0"
       cy="0"
       r="1"
       gradientUnits="userSpaceOnUse"
       gradientTransform="matrix(-31.0355,0,0,-33.6025,24.9999,27.59175)">
      <stop
         stop-color="white"
         id="stop974" />
      <stop
         offset="1"
         id="stop976" />
    </radialGradient>
    <radialGradient
       id="paint3_radial_126_828"
       cx="0"
       cy="0"
       r="1"
       gradientUnits="userSpaceOnUse"
       gradientTransform="matrix(31.0355,0,0,33.6025,25.0012,27.59175)">
      <stop
         stop-color="white"
         id="stop979" />
      <stop
         offset="1"
         id="stop981" />
    </radialGradient>
    <radialGradient
       id="paint4_radial_126_828"
       cx="0"
       cy="0"
       r="1"
       gradientUnits="userSpaceOnUse"
       gradientTransform="matrix(-15.517281,-26.877802,29.100912,-16.800742,25.0037,27.58645)">
      <stop
         stop-color="white"
         id="stop984" />
      <stop
         offset="1"
         id="stop986" />
    </radialGradient>
    <radialGradient
       id="paint5_radial_126_828"
       cx="0"
       cy="0"
       r="1"
       gradientUnits="userSpaceOnUse"
       gradientTransform="matrix(-15.518219,26.877261,-29.100325,-16.801758,24.9966,27.58765)">
      <stop
         stop-color="white"
         id="stop989" />
      <stop
         offset="1"
         id="stop991" />
    </radialGradient>
    <radialGradient
       id="paint6_radial_126_828"
       cx="0"
       cy="0"
       r="1"
       gradientUnits="userSpaceOnUse"
       gradientTransform="matrix(15.517422,-26.877721,29.100824,16.800894,24.9976,27.58715)">
      <stop
         stop-color="white"
         id="stop994" />
      <stop
         offset="1"
         id="stop996" />
    </radialGradient>
    <radialGradient
       id="paint7_radial_126_828"
       cx="0"
       cy="0"
       r="1"
       gradientUnits="userSpaceOnUse"
       gradientTransform="matrix(31.0355,0,0,33.6024,25.0012,27.59175)">
      <stop
         stop-color="white"
         id="stop999" />
      <stop
         offset="1"
         id="stop1001" />
    </radialGradient>
    <radialGradient
       id="paint8_radial_126_828"
       cx="0"
       cy="0"
       r="1"
       gradientUnits="userSpaceOnUse"
       gradientTransform="matrix(15.518078,26.877342,-29.100413,16.801606,25.0049,27.58745)">
      <stop
         stop-color="white"
         id="stop1004" />
      <stop
         offset="1"
         id="stop1006" />
    </radialGradient>
    <radialGradient
       id="paint9_radial_126_828"
       cx="0"
       cy="0"
       r="1"
       gradientUnits="userSpaceOnUse"
       gradientTransform="matrix(15.517938,26.877423,-29.100501,16.801453,25.0047,27.58745)">
      <stop
         stop-color="white"
         id="stop1009" />
      <stop
         offset="1"
         id="stop1011" />
    </radialGradient>
  </defs>
</svg>
