<?xml version="1.0" encoding="UTF-8" standalone="no"?>
<svg
   width="500"
   height="250"
   viewBox="0 0 500 250"
   fill="none"
   version="1.1"
   id="svg1532"
   sodipodi:docname="title.svg"
   inkscape:version="1.1.2 (b8e25be833, 2022-02-05)"
   xmlns:inkscape="http://www.inkscape.org/namespaces/inkscape"
   xmlns:sodipodi="http://sodipodi.sourceforge.net/DTD/sodipodi-0.dtd"
   xmlns="http://www.w3.org/2000/svg"
   xmlns:svg="http://www.w3.org/2000/svg">
  <defs
     id="defs1536" />
  <sodipodi:namedview
     id="namedview1534"
     pagecolor="#ffffff"
     bordercolor="#666666"
     borderopacity="1.0"
     inkscape:pageshadow="2"
     inkscape:pageopacity="0.0"
     inkscape:pagecheckerboard="0"
     showgrid="false"
     inkscape:zoom="1.4690679"
     inkscape:cx="191.95845"
     inkscape:cy="204.21112"
     inkscape:window-width="1920"
     inkscape:window-height="1017"
     inkscape:window-x="-8"
     inkscape:window-y="-8"
     inkscape:window-maximized="1"
     inkscape:current-layer="svg1532" />
  <path
     d="m 90.773171,95.974695 h -13.655 c -0.959,0 -1.704,-1.0909 -2.236,-3.2727 l -0.08,-21.4716 -12.458,-0.3993 v 19.1569 c 0,1.3303 0.479,2.5543 1.437,3.6717 0.852,0.745 1.677,1.5166 2.476,2.3148 h -13.656 c -0.958,0 -1.704,-1.0908 -2.236,-3.2726 l -0.319,-42.6241 c 0.106,-0.5853 -0.453,-1.3835 -1.677,-2.3946 -1.065,-0.8514 -1.598,-1.2771 -1.598,-1.2771 h 13.177 c 0.426,0.1065 0.879,0.4525 1.358,1.0377 0.639,0.745 0.878,1.5432 0.718,2.3946 l 0.08,16.443 c 0.639,0.5321 1.571,1.0642 2.795,1.5963 l 9.903,-1.1174 0.08,-16.3632 c 0.053,-0.5853 -0.506,-1.4633 -1.677,-2.634 -1.012,-0.9579 -1.491,-1.4368 -1.438,-1.4368 h 13.097 c 0.479,0.1065 0.958,0.4524 1.437,1.0377 0.639,0.7449 0.879,1.5432 0.719,2.3946 v 40.7083 c 0,1.3303 0.453,2.4744 1.358,3.4323 0.798,0.6918 1.597,1.3835 2.395,2.0753 z"
     fill="#ffffff"
     stroke="#000000"
     stroke-width="0.264583"
     id="path1504" />
  <path
     d="m 150.02817,66.601095 c 0,6.6517 -0.053,10.4565 -0.159,11.4143 -0.426,2.7139 -0.852,5.4012 -1.278,8.0619 -0.958,6.0663 -6.762,16.416795 -17.409,31.049795 l -20.204,0.319 c 2.768,-2.128 5.536,-4.257 8.305,-6.385 3.727,-2.927 6.868,-5.641 9.423,-8.142 7.666,-7.449795 11.313,-14.287695 10.941,-20.513695 -5.484,6.2792 -9.291,10.4032 -11.42,12.3722 -1.012,0.9046 -2.236,1.7294 -3.674,2.4744 -1.437,0.7982 -2.582,1.1973 -3.433,1.1973 -3.248,0 -7.081,-1.4368 -11.5,-4.3103 -4.419,-2.9267 -7.028,-5.8003 -7.826,-8.6206 -0.533,-1.9157 -0.772,-3.592 -0.719,-5.0287 l 8.465,-17.7999 c -3.94,0.6386 -7.134,2.5542 -9.582999,5.747 -1.491,-0.4789 -3.434,-4.1506 -5.83,-11.0151 11.552999,-0.1066 19.645999,-0.0801 24.276999,0.0796 l -7.267,17.4008 c -0.319,3.0864 1.172,5.8535 4.472,8.3013 2.982,2.2882 5.99,3.4323 9.024,3.4323 0.692,0 1.651,-0.3459 2.875,-1.0377 1.278,-0.6918 2.289,-1.3835 3.035,-2.0753 1.491,-1.4899 3.034,-3.5387 4.632,-6.1461 1.437,-2.3946 2.422,-4.4966 2.954,-6.3059 l -9.183,-13.5694 h 17.568 c 0.639,0.9046 1.385,2.4744 2.237,4.7094 0.851,2.235 1.277,3.6984 1.277,4.3901 z"
     fill="#ffffff"
     stroke="#000000"
     stroke-width="0.264583"
     id="path1506" />
  <path
     d="m 203.85317,77.616295 c -0.107,3.0332 -2.343,6.6517 -6.708,10.8556 -1.225,1.1174 -4.898,4.124 -11.021,9.0197 -3.407,-0.4258 -7.933,-1.4102 -13.576,-2.9534 l 0.24,21.391895 c 0.053,0.16 0.08,0.346 0.08,0.559 0,1.011 -0.639,1.995 -1.917,2.953 -1.224,0.958 -2.289,1.41 -3.194,1.357 h -19.486 c 4.738,-2.554 7.294,-3.964 7.667,-4.23 3.939,-2.555 5.909,-4.71 5.909,-6.466 l -0.16,-39.750395 c 0,-1.969 -1.357,-4.4168 -4.072,-7.3435 -2.077,-2.235 -4.153,-4.0442 -6.229,-5.4277 l 17.249,0.0796 c 0.692,0 1.544,0.3991 2.556,1.1973 1.064,0.9578 1.543,1.8624 1.437,2.7139 l 0.319,10.0574 15.493,-14.6071 c 2.396,0.1596 5.271,2.0752 8.625,5.7469 4.046,4.4168 6.308,9.3657 6.788,14.8467 z m -11.979,-1.3569 c -0.053,-1.5964 -0.639,-3.1663 -1.757,-4.7094 -1.331,-1.7029 -2.822,-2.5543 -4.472,-2.5543 -2.609,0 -5.351,2.0753 -8.225,6.226 -2.822,4.1506 -4.047,7.7426 -3.674,10.7757 1.118,2.4479 5.404,4.0709 12.857,4.869 z"
     fill="#ffffff"
     stroke="#000000"
     stroke-width="0.264583"
     id="path1508" />
  <path
     d="m 245.21917,57.501595 c -0.692,1.7029 -1.783,3.4855 -3.274,5.348 -1.491,1.8625 -2.928,3.1662 -4.312,3.9112 -2.928,-3.0864 -6.469,-4.6296 -10.621,-4.6296 -2.449,0 -4.819,1.0377 -7.108,3.113 -2.502,2.2882 -3.647,4.8956 -3.434,7.8224 l 20.684,0.5587 c -0.16,1.0643 -0.639,2.3148 -1.438,3.7515 -1.118,2.0221 -2.369,3.0332 -3.753,3.0332 -0.16,0 -1.358,-0.6119 -3.594,-1.8358 -2.236,-1.2239 -4.605,-1.8359 -7.107,-1.8359 -1.384,0 -2.769,0.4523 -4.153,1.357 0.958,2.6606 3.194,5.5873 6.708,8.7801 3.62,3.3525 6.602,5.0287 8.944,5.0287 1.491,0 4.739,-1.5698 9.743,-4.7094 l 2.715,8.7803 h -25.235 c -1.97,0.0531 -4.685,-1.5433 -8.146,-4.7893 -3.46,-3.2992 -5.19,-6.1461 -5.19,-8.5407 v -8.1416 c 0,-2.1286 1.97,-5.4811 5.909,-10.0574 4.153,-4.7892 7.48,-7.1306 9.982,-7.0242 z"
     fill="#ffffff"
     stroke="#000000"
     stroke-width="0.264583"
     id="path1510" />
  <path
     d="m 315.49417,110.42209 -20.843,0.08 c -3.141,-2.608 -7.453,-6.811 -12.937,-12.611595 -2.289,-2.3946 -4.552,-5.4012 -6.788,-9.0197 -2.236,-3.6718 -3.673,-6.6783 -4.312,-9.0197 l 6.788,-11.3345 -1.038,-4.3901 c -0.32,-0.2127 -0.772,-0.3191 -1.358,-0.3191 -1.597,0 -3.514,0.5853 -5.75,1.756 -2.236,1.1707 -3.354,2.1818 -3.354,3.0332 v 20.5137 c 0,1.224 2.316,3.5122 6.948,6.8646 h -17.888 v -26.2609 c 0.053,-1.9689 -0.639,-3.9112 -2.077,-5.8269 -2.821,-3.512 -4.392,-5.5341 -4.711,-6.0663 h 17.01 c 0.159,0.5854 0.665,1.5166 1.517,2.7937 2.449,-1.0642 4.925,-2.1285 7.427,-3.1928 2.875,-1.1175 5.377,-1.6762 7.506,-1.6762 0.639,0 1.252,0.0265 1.837,0.0796 3.62,0.6918 5.431,3.2727 5.431,7.7426 0,0.9579 -0.08,1.9423 -0.24,2.9533 -0.586,3.1929 -4.179,7.0509 -10.781,11.574 3.94,6.0663 9.743,12.0528 17.409,17.9595 6.762,4.789595 13.496,9.578595 20.204,14.367595 z"
     fill="#ffffff"
     stroke="#000000"
     stroke-width="0.264583"
     id="path1512" />
  <path
     d="m 348.71517,70.831595 c 0,5.0553 -3.38,10.9354 -10.142,17.6403 -6.708,6.6517 -12.378,9.9775 -17.009,9.9775 -3.354,0 -7.374,-2.0221 -12.059,-6.0663 -4.898,-4.1506 -7.347,-7.9554 -7.347,-11.4143 0,-1.1707 0.559,-3.1928 1.677,-6.0664 1.171,-2.8735 2.21,-4.736 3.115,-5.5874 1.597,-1.7028 3.221,-3.4056 4.871,-5.1085 1.863,-1.8092 3.673,-2.7671 5.43,-2.8735 -1.224,4.5231 -1.836,8.0618 -1.836,10.6161 0,6.5453 3.966,11.3345 11.899,14.3676 0.958,0.3725 1.996,0.5588 3.114,0.5588 4.525,0 6.788,-2.0487 6.788,-6.1461 0,-2.3414 -0.666,-4.8691 -1.997,-7.583 -2.076,-4.3103 -5.696,-8.4876 -10.86,-12.5318 -4.046,-3.1396 -8.465,-5.8003 -13.257,-7.9821 -5.217,-2.3945 -9.716,-4.0175 -13.496,-4.869 0,-0.0531 0.08,-0.1595 0.24,-0.3191 0.213,-0.3725 0.399,-0.6652 0.559,-0.878 l 25.874,-0.2395 c 3.833,-0.0531 8.864,3.0599 15.093,9.339 6.229,6.2792 9.343,11.3345 9.343,15.1659 z"
     fill="#ffffff"
     stroke="#000000"
     stroke-width="0.264583"
     id="path1514" />
  <path
     d="m 368.52017,54.548195 h -16.77 c 8.306,-4.8424 12.857,-7.2636 13.656,-7.2636 0.799,0 1.544,1.0642 2.236,3.1928 0.586,1.756 0.878,3.113 0.878,4.0708 z m 7.587,41.4268 h -19.805 v -30.0923 c 0,-0.4789 -0.532,-1.5432 -1.597,-3.1928 -1.491,-2.3414 -2.529,-4.0974 -3.114,-5.2681 11.233,0 16.956,0 17.169,0 v 28.2563 c 0,0.745 1.225,2.6075 3.674,5.5875 2.502,2.9799 3.726,4.5497 3.673,4.7094 z"
     fill="#ffffff"
     stroke="#000000"
     stroke-width="0.264583"
     id="path1516" />
  <path
     d="m 414.11917,57.501595 c -0.692,1.7029 -1.783,3.4855 -3.274,5.348 -1.491,1.8625 -2.928,3.1662 -4.312,3.9112 -2.928,-3.0864 -6.469,-4.6296 -10.621,-4.6296 -2.449,0 -4.818,1.0377 -7.108,3.113 -2.502,2.2882 -3.647,4.8956 -3.434,7.8224 0.054,0.8514 0.266,2.5276 0.639,5.0287 0.959,2.6606 3.195,5.5873 6.708,8.7801 3.621,3.3525 6.602,5.0287 8.944,5.0287 1.491,0 4.739,-1.5698 9.743,-4.7094 l 2.715,8.7803 h -25.235 c -1.97,0.0531 -4.685,-1.5433 -8.145,-4.7893 -3.461,-3.2992 -5.191,-6.1461 -5.191,-8.5407 v -8.1416 c 0,-2.1286 1.97,-5.4811 5.909,-10.0574 4.153,-4.7892 7.48,-7.1306 9.983,-7.0242 z"
     fill="#ffffff"
     stroke="#000000"
     stroke-width="0.264583"
     id="path1518" />
  <path
     d="m 453.41017,57.501595 c -0.692,1.7029 -1.784,3.4855 -3.275,5.348 -1.49,1.8625 -2.928,3.1662 -4.312,3.9112 -2.928,-3.0864 -6.468,-4.6296 -10.621,-4.6296 -2.449,0 -4.818,1.0377 -7.107,3.113 -2.503,2.2882 -3.647,4.8956 -3.434,7.8224 l 20.683,0.5587 c -0.16,1.0643 -0.639,2.3148 -1.438,3.7515 -1.118,2.0221 -2.369,3.0332 -3.753,3.0332 -0.16,0 -1.357,-0.6119 -3.593,-1.8358 -2.236,-1.2239 -4.606,-1.8359 -7.108,-1.8359 -1.384,0 -2.768,0.4523 -4.152,1.357 0.958,2.6606 3.194,5.5873 6.708,8.7801 3.62,3.3525 6.601,5.0287 8.944,5.0287 1.49,0 4.738,-1.5698 9.742,-4.7094 l 2.716,8.7803 h -25.236 c -1.969,0.0531 -4.685,-1.5433 -8.145,-4.7893 -3.461,-3.2992 -5.191,-6.1461 -5.191,-8.5407 v -8.1416 c 0,-2.1286 1.97,-5.4811 5.91,-10.0574 4.152,-4.7892 7.48,-7.1306 9.982,-7.0242 z"
     fill="#ffffff"
     stroke="#000000"
     stroke-width="0.264583"
     id="path1520" />
  <path
     d="m 170.76417,163.52309 c 0,18.358 -1.89,27.884 -5.67,28.575 l -14.694,2.714 c 1.278,-1.437 3.115,-3.618 5.51,-6.545 h -18.607 c -2.555,0 -6.016,-2.075 -10.381,-6.226 -4.526,-4.257 -6.788,-7.902 -6.788,-10.935 v -10.617 c 0,-2.66 2.529,-6.917 7.586,-12.771 5.324,-6.066 9.61,-9.099 12.858,-9.099 l 29.148,0.159 c -0.905,2.129 -2.263,4.311 -4.073,6.546 -1.917,2.394 -3.727,4.097 -5.43,5.108 -3.887,-4.044 -8.519,-6.066 -13.896,-6.066 -4.631,0 -8.119,1.65 -10.461,4.949 -1.97,2.767 -2.955,6.385 -2.955,10.855 0,1.703 0.133,3.406 0.4,5.109 1.331,3.459 4.259,7.263 8.784,11.414 4.738,4.364 8.651,6.545 11.739,6.545 1.704,0 3.407,-0.745 5.111,-2.235 1.331,-1.17 1.997,-3.033 1.997,-5.587 0,-2.82 -0.693,-6.04 -2.077,-9.658 -0.319,-0.16 -0.639,-0.24 -0.958,-0.24 -0.905,0 -2.103,0.639 -3.594,1.916 -1.757,1.596 -2.821,2.474 -3.194,2.634 l -6.389,-6.545 z"
     fill="#ffffff"
     stroke="#000000"
     stroke-width="0.264583"
     id="path1522" />
  <path
     d="m 228.26217,188.26709 h -16.611 l -8.784,-10.696 c -2.822,2.129 -5.617,4.257 -8.385,6.386 -3.62,2.66 -6.895,3.991 -9.823,3.991 -2.555,0 -5.217,-1.65 -7.986,-4.949 -2.502,-3.033 -3.753,-5.561 -3.753,-7.583 0,-2.501 1.864,-5.827 5.59,-9.978 3.78,-4.15 7.028,-6.226 9.743,-6.226 0.373,0 0.719,0.054 1.038,0.16 -0.106,1.224 -1.304,2.741 -3.594,4.55 -2.236,1.809 -3.354,3.565 -3.354,5.268 0,2.341 1.331,4.576 3.993,6.705 2.343,1.809 4.313,2.714 5.91,2.714 1.331,0 2.955,-0.772 4.871,-2.315 1.97,-1.543 2.955,-2.874 2.955,-3.991 0,-2.661 -1.464,-5.641 -4.392,-8.94 -2.449,-2.661 -5.404,-5.135 -8.865,-7.423 -3.141,-2.022 -5.297,-3.007 -6.468,-2.954 -1.704,0 -2.981,-0.106 -3.833,-0.319 -0.852,-0.212 -1.225,-0.319 -1.118,-0.319 0.958,-1.649 2.103,-2.474 3.434,-2.474 h 17.329 c 1.118,-0.053 5.59,5.162 13.416,15.645 8.944,12.026 15.173,19.609 18.687,22.748 z"
     fill="#ffffff"
     stroke="#000000"
     stroke-width="0.264583"
     id="path1524" />
  <path
     d="m 294.06517,188.26709 h -20.683 c 1.437,0 3.088,-1.862 4.951,-5.587 1.704,-3.353 2.635,-5.96 2.795,-7.823 0.213,-3.406 -0.106,-6.705 -0.958,-9.898 -1.118,-4.257 -2.982,-6.385 -5.59,-6.385 -0.479,0 -0.959,0.08 -1.438,0.239 -1.437,0.745 -2.528,2.022 -3.274,3.832 -0.479,1.436 -0.958,2.9 -1.437,4.39 l -6.149,17.64 c 0.426,0.373 1.224,0.665 2.395,0.878 1.172,0.213 1.97,0.479 2.396,0.798 -0.053,0.32 -0.266,0.958 -0.639,1.916 h -12.378 l 2.556,-2.554 c 2.608,-2.608 3.913,-6.732 3.913,-12.372 0,-1.224 -0.08,-2.581 -0.24,-4.071 -0.372,-1.916 -1.198,-3.965 -2.475,-6.146 -1.651,-2.608 -3.248,-3.832 -4.792,-3.672 -1.863,0.159 -4.046,2.022 -6.548,5.587 -0.799,1.171 -1.731,2.794 -2.795,4.869 -1.012,2.076 -1.518,3.3 -1.518,3.672 v 9.02 c 1.278,0.904 2.982,2.155 5.111,3.751 -0.053,0.32 -0.266,0.958 -0.639,1.916 l -15.492,0.08 0.319,-31.05 c 0.053,-0.958 -0.559,-2.129 -1.837,-3.513 -2.023,-2.128 -3.141,-3.352 -3.354,-3.671 h 12.458 c 1.544,-0.16 2.689,0.825 3.434,2.953 l 0.559,10.297 c 0.692,-0.745 1.89,-2.475 3.594,-5.188 1.757,-2.714 3.168,-4.657 4.232,-5.827 1.757,-1.863 3.434,-2.847 5.031,-2.954 1.438,-0.106 3.328,0.559 5.67,1.996 2.662,1.649 4.685,3.672 6.07,6.066 0.053,0 1.543,-1.649 4.472,-4.949 2.076,-2.341 4.046,-3.592 5.909,-3.751 3.514,-0.373 6.761,1.809 9.743,6.545 1.118,1.809 1.783,3.778 1.996,5.907 0.053,0.372 0.08,2.554 0.08,6.545 -1.81,5.321 -2.715,7.982 -2.715,7.982 -1.491,2.395 -2.982,4.816 -4.472,7.264 1.224,-0.213 2.342,-0.532 3.354,-0.958 0.745,-0.319 1.49,-0.639 2.236,-0.958 z"
     fill="#ffffff"
     stroke="#000000"
     stroke-width="0.264583"
     id="path1526" />
  <path
     d="m 331.67817,149.79409 c -0.692,1.702 -1.783,3.485 -3.274,5.348 -1.49,1.862 -2.928,3.166 -4.312,3.911 -2.928,-3.087 -6.469,-4.63 -10.621,-4.63 -2.449,0 -4.818,1.038 -7.108,3.113 -2.502,2.288 -3.646,4.896 -3.434,7.823 l 20.684,0.558 c -0.16,1.065 -0.639,2.315 -1.438,3.752 -1.118,2.022 -2.369,3.033 -3.753,3.033 -0.16,0 -1.358,-0.612 -3.594,-1.836 -2.236,-1.224 -4.605,-1.836 -7.107,-1.836 -1.384,0 -2.768,0.453 -4.153,1.357 0.959,2.661 3.195,5.588 6.708,8.78 3.621,3.353 6.602,5.029 8.945,5.029 1.49,0 4.738,-1.57 9.742,-4.709 l 2.715,8.78 h -25.235 c -1.97,0.053 -4.685,-1.543 -8.145,-4.789 -3.461,-3.3 -5.191,-6.146 -5.191,-8.541 v -8.142 c 0,-2.128 1.97,-5.481 5.909,-10.057 4.153,-4.789 7.48,-7.131 9.983,-7.024 z"
     fill="#ffffff"
     stroke="#000000"
     stroke-width="0.264583"
     id="path1528" />
  <path
     d="m 379.03417,149.95309 c 0.107,0.213 0.16,0.426 0.16,0.639 0,1.383 -1.198,3.272 -3.593,5.667 -2.343,2.341 -4.073,3.512 -5.191,3.512 0,0 -1.464,-0.958 -4.392,-2.873 -2.875,-1.969 -5.032,-2.954 -6.469,-2.954 0.053,0 -0.506,-0.053 -1.677,-0.16 -1.118,-0.106 -2.183,-0.159 -3.194,-0.159 -5.005,0 -7.507,1.25 -7.507,3.751 0,1.064 0.666,2.395 1.996,3.991 1.491,1.809 2.929,2.714 4.313,2.714 0.266,0 0.506,-0.026 0.719,-0.08 l 10.381,-3.751 c 3.887,-0.107 6.442,2.421 7.667,7.583 0.585,2.394 0.878,6.173 0.878,11.334 0,3.087 -3.168,7.929 -9.503,14.528 -6.282,6.651 -10.808,9.977 -13.576,9.977 -2.076,0.053 -4.153,-1.144 -6.229,-3.592 -2.076,-2.394 -3.088,-5.002 -3.035,-7.822 l 9.264,-12.931 c 0.106,0.585 0.16,1.277 0.16,2.075 0,0.692 -0.054,1.756 -0.16,3.193 -0.053,1.384 -0.08,2.448 -0.08,3.193 0,4.576 1.81,7.051 5.431,7.423 2.715,0.319 5.004,-1.25 6.867,-4.709 1.544,-2.874 2.316,-5.614 2.316,-8.222 -0.852,-7.982 -2.954,-11.973 -6.309,-11.973 -0.851,0 -2.342,0.719 -4.472,2.155 -2.076,1.384 -4.019,2.076 -5.829,2.076 -3.514,0 -6.655,-1.863 -9.424,-5.588 -2.395,-3.299 -3.593,-6.359 -3.593,-9.179 0,-2.022 0.585,-3.964 1.757,-5.827 1.49,-2.448 3.647,-3.858 6.468,-4.23 z"
     fill="#ffffff"
     stroke="#000000"
     stroke-width="0.264583"
     id="path1530" />
</svg>
